<svg width="2026" height="108" viewBox="0 0 2026 108" fill="none" xmlns="http://www.w3.org/2000/svg">
<g filter="url(#filter0_bd_267_2073)">
<mask id="path-1-inside-1_267_2073" fill="white">
<path fill-rule="evenodd" clip-rule="evenodd" d="M2022 29.5223C2022 13.2176 2008.78 0 1992.48 0H33.5223C17.2176 0 4 13.2176 4 29.5223C4 45.8271 17.2176 59.0447 33.5223 59.0447H730.174C745.562 59.0447 760.743 62.5959 774.534 69.422L815.347 89.6227C829.138 96.4487 844.318 100 859.706 100H1166.29C1181.68 100 1196.86 96.4487 1210.65 89.6227L1251.47 69.422C1265.26 62.5959 1280.44 59.0447 1295.83 59.0447H1992.48C2008.78 59.0447 2022 45.8271 2022 29.5223Z"/>
</mask>
<path fill-rule="evenodd" clip-rule="evenodd" d="M2022 29.5223C2022 13.2176 2008.78 0 1992.48 0H33.5223C17.2176 0 4 13.2176 4 29.5223C4 45.8271 17.2176 59.0447 33.5223 59.0447H730.174C745.562 59.0447 760.743 62.5959 774.534 69.422L815.347 89.6227C829.138 96.4487 844.318 100 859.706 100H1166.29C1181.68 100 1196.86 96.4487 1210.65 89.6227L1251.47 69.422C1265.26 62.5959 1280.44 59.0447 1295.83 59.0447H1992.48C2008.78 59.0447 2022 45.8271 2022 29.5223Z" fill="#777777" fill-opacity="0.1" shape-rendering="crispEdges"/>
<path d="M1251.47 69.422L1250.13 66.7333L1251.47 69.422ZM1210.65 89.6227L1211.98 92.3114L1210.65 89.6227ZM815.347 89.6227L816.678 86.934L815.347 89.6227ZM774.534 69.422L773.203 72.1107L774.534 69.422ZM33.5223 3H1992.48V-3H33.5223V3ZM730.174 56.0447H33.5223V62.0447H730.174V56.0447ZM816.678 86.934L775.865 66.7333L773.203 72.1107L814.016 92.3113L816.678 86.934ZM1166.29 97H859.706V103H1166.29V97ZM1250.13 66.7333L1209.32 86.934L1211.98 92.3114L1252.8 72.1107L1250.13 66.7333ZM1992.48 56.0447H1295.83V62.0447H1992.48V56.0447ZM1992.48 62.0447C2010.44 62.0447 2025 47.4839 2025 29.5223H2019C2019 44.1702 2007.13 56.0447 1992.48 56.0447V62.0447ZM1252.8 72.1107C1266.17 65.4894 1280.9 62.0447 1295.83 62.0447V56.0447C1279.98 56.0447 1264.34 59.7025 1250.13 66.7333L1252.8 72.1107ZM1166.29 103C1182.14 103 1197.78 99.3422 1211.98 92.3114L1209.32 86.934C1195.94 93.5553 1181.22 97 1166.29 97V103ZM814.016 92.3113C828.221 99.3422 843.857 103 859.706 103V97C844.78 97 830.055 93.5553 816.678 86.934L814.016 92.3113ZM730.174 62.0447C745.101 62.0447 759.826 65.4894 773.203 72.1107L775.865 66.7333C761.66 59.7025 746.024 56.0447 730.174 56.0447V62.0447ZM1 29.5223C1 47.4839 15.5607 62.0447 33.5223 62.0447V56.0447C18.8745 56.0447 7 44.1702 7 29.5223H1ZM1992.48 3C2007.13 3 2019 14.8745 2019 29.5223H2025C2025 11.5608 2010.44 -3 1992.48 -3V3ZM33.5223 -3C15.5607 -3 1 11.5608 1 29.5223H7C7 14.8745 18.8745 3 33.5223 3V-3Z" fill="white" mask="url(#path-1-inside-1_267_2073)"/>
</g>
<defs>
<filter id="filter0_bd_267_2073" x="-8.8" y="-12.8" width="2043.6" height="125.6" filterUnits="userSpaceOnUse" color-interpolation-filters="sRGB">
<feFlood flood-opacity="0" result="BackgroundImageFix"/>
<feGaussianBlur in="BackgroundImageFix" stdDeviation="6.4"/>
<feComposite in2="SourceAlpha" operator="in" result="effect1_backgroundBlur_267_2073"/>
<feColorMatrix in="SourceAlpha" type="matrix" values="0 0 0 0 0 0 0 0 0 0 0 0 0 0 0 0 0 0 127 0" result="hardAlpha"/>
<feOffset dy="4"/>
<feGaussianBlur stdDeviation="2"/>
<feComposite in2="hardAlpha" operator="out"/>
<feColorMatrix type="matrix" values="0 0 0 0 0 0 0 0 0 0 0 0 0 0 0 0 0 0 0.25 0"/>
<feBlend mode="normal" in2="effect1_backgroundBlur_267_2073" result="effect2_dropShadow_267_2073"/>
<feBlend mode="normal" in="SourceGraphic" in2="effect2_dropShadow_267_2073" result="shape"/>
</filter>
</defs>
</svg>
