<svg width="27" height="34" viewBox="0 0 27 34" fill="none" xmlns="http://www.w3.org/2000/svg">
<path d="M4.87549 1.0462L6.90297 0.461629C8.01364 0.140573 9.20822 0.21786 10.2638 0.679068C11.3194 1.14028 12.1639 1.9539 12.6397 2.96811L14.2068 6.30897C14.6159 7.18133 14.7298 8.15457 14.5325 9.09214C14.3353 10.0297 13.8368 10.8846 13.107 11.5368L10.5097 13.8567C10.4338 13.9245 10.3858 14.0161 10.3742 14.1149C10.2977 14.776 10.7651 16.0634 11.844 17.8538C12.6258 19.1545 13.3364 20.0688 13.9392 20.5801C14.3614 20.9381 14.5925 21.0148 14.6915 20.9881L18.1836 19.9639C19.1372 19.6842 20.1582 19.6977 21.1035 20.0023C22.0488 20.307 22.8709 20.8875 23.4547 21.6626L25.6785 24.6204C26.3555 25.5197 26.6691 26.6239 26.5611 27.7281C26.4531 28.8322 25.9308 29.8613 25.0912 30.6243L23.5502 32.0233C22.7333 32.7649 21.7299 33.2911 20.6378 33.5505C19.5456 33.81 18.4021 33.7939 17.3184 33.5038C12.5337 32.2231 8.2442 28.3527 4.40119 21.9724C0.55471 15.5838 -0.796944 10.0812 0.45047 5.46293C0.730488 4.42426 1.28489 3.47224 2.06025 2.69864C2.8356 1.92504 3.80403 1.35594 4.87549 1.0462ZM5.6295 3.43943C4.98648 3.6248 4.40412 3.96583 3.93855 4.42964C3.47297 4.89344 3.13987 5.4644 2.97136 6.08747C1.92548 9.97126 3.12251 14.8493 6.65974 20.7233C10.1935 26.589 13.9966 30.0214 18.022 31.099C18.6722 31.2728 19.3584 31.2823 20.0136 31.1264C20.6688 30.9706 21.2707 30.6547 21.7607 30.2096L23.3 28.8107C23.6819 28.4639 23.9195 27.996 23.9687 27.494C24.018 26.992 23.8754 26.4899 23.5676 26.081L21.3438 23.1249C21.0784 22.7721 20.7045 22.5079 20.2745 22.3693C19.8445 22.2307 19.38 22.2247 18.9463 22.3521L15.4455 23.3797C13.4128 23.9592 11.5695 22.3921 9.58891 19.1028C8.25115 16.8878 7.62918 15.1724 7.78554 13.8384C7.86546 13.1456 8.20251 12.5061 8.7324 12.0297L11.3297 9.70979C11.6613 9.41317 11.8877 9.02447 11.9771 8.59825C12.0665 8.17202 12.0145 7.72965 11.8283 7.33321L10.263 3.99235C10.0467 3.53134 9.6628 3.16152 9.18295 2.95191C8.70311 2.74229 8.16009 2.70721 7.65524 2.85319L5.6295 3.43943Z" fill="white"/>
</svg>
