<svg width="35" height="35" viewBox="0 0 35 35" fill="none" xmlns="http://www.w3.org/2000/svg">
<path d="M30.5155 9.27503C25.9436 2.18753 16.5811 0.0875313 9.34049 4.48441C2.27487 8.88128 -0.000135183 18.4625 4.57174 25.5282L4.94361 26.0969L3.41236 31.8282L9.14361 30.2969L9.71237 30.6688C12.1842 32.0032 14.8749 32.7688 17.5436 32.7688C20.4092 32.7688 23.2749 32.0032 25.7467 30.4719C32.8124 25.8782 34.9124 16.4938 30.5155 9.23128V9.27503ZM26.5124 24.0188C25.7467 25.1563 24.7842 25.9219 23.4499 26.1188C22.6842 26.1188 21.7217 26.4907 17.9155 24.9813C14.678 23.45 11.9874 20.9563 10.0842 18.0907C8.94674 16.7563 8.35612 15.0282 8.18112 13.3C8.18112 11.7688 8.74987 10.4344 9.71237 9.47191C10.0842 9.10003 10.478 8.90316 10.8499 8.90316H11.8124C12.1842 8.90316 12.578 8.90316 12.7749 9.66878C13.1467 10.6313 14.1092 12.9282 14.1092 13.125C14.3061 13.3219 14.2186 14.7875 13.3436 15.6188C12.8624 16.1657 12.7749 16.1875 12.9717 16.5813C13.7374 17.7188 14.6999 18.8782 15.6405 19.8407C16.778 20.8032 17.9374 21.5688 19.2717 22.1375C19.6436 22.3344 20.0374 22.3344 20.2342 21.9407C20.4311 21.5688 21.3717 20.6063 21.7655 20.2125C22.1374 19.8407 22.3342 19.8407 22.728 20.0157L25.7905 21.5469C26.1624 21.7438 26.5561 21.9188 26.753 22.1157C26.9499 22.6844 26.9499 23.45 26.5561 24.0188H26.5124Z" fill="white"/>
</svg>
