<svg width="1828" height="2307" viewBox="0 0 1828 2307" fill="none" xmlns="http://www.w3.org/2000/svg">
<path fill-rule="evenodd" clip-rule="evenodd" d="M5 2C2.0806 2 -0.718071 0 -3.63747 0H-29.9816C-64.2334 0 -92 27.7666 -92 62.0184V980C-92 1035.23 -47.2285 1080 7.99996 1080H107C162.228 1080 207 1124.77 207 1180L207 2007.08C207 2051.01 235.668 2089.8 277.663 2102.68L927.315 2302.04C946.343 2307.88 966.68 2307.91 985.723 2302.12L1642.58 2102.55C1684.71 2089.75 1713.51 2050.9 1713.51 2006.87V1137.25C1713.51 1105.63 1739.14 1080 1770.75 1080C1802.37 1080 1828 1054.37 1828 1022.75V187.995C1828 119.955 1757.89 74.5063 1695.78 102.286C1682.93 108.031 1669.02 111 1654.95 111H918.805C906.414 111 894.131 108.697 882.581 104.209L637.054 8.7912C625.505 4.30284 613.222 2 600.831 2H5Z" fill="#00C2FF" fill-opacity="0.1"/>
</svg>
