<svg width="30" height="31" viewBox="0 0 30 31" fill="none" xmlns="http://www.w3.org/2000/svg">
<path d="M14.0489 3.42705C14.3483 2.50574 15.6517 2.50574 15.9511 3.42705L18.1432 10.1738C18.2771 10.5858 18.661 10.8647 19.0943 10.8647H26.1882C27.1569 10.8647 27.5597 12.1044 26.7759 12.6738L21.0369 16.8435C20.6864 17.0981 20.5397 17.5495 20.6736 17.9615L22.8657 24.7082C23.1651 25.6295 22.1106 26.3956 21.3269 25.8262L15.5878 21.6565C15.2373 21.4019 14.7627 21.4019 14.4122 21.6565L8.67312 25.8262C7.88941 26.3956 6.83493 25.6295 7.13428 24.7082L9.32642 17.9615C9.46029 17.5495 9.31363 17.0981 8.96315 16.8435L3.22405 12.6738C2.44034 12.1044 2.84311 10.8647 3.81184 10.8647H10.9057C11.339 10.8647 11.7229 10.5858 11.8568 10.1738L14.0489 3.42705Z" fill="#FAE106"/>
</svg>
