<svg width="94" height="95" viewBox="0 0 94 95" fill="none" xmlns="http://www.w3.org/2000/svg">
<rect y="0.5" width="94" height="94" rx="47" fill="#E7E7E7"/>
<path d="M67.1016 63.9067C64.127 58.7641 59.543 55.0766 54.1934 53.3286C56.8396 51.7533 58.8955 49.3529 60.0454 46.4961C61.1953 43.6393 61.3757 40.484 60.5588 37.5148C59.7419 34.5456 57.9729 31.9266 55.5235 30.06C53.074 28.1935 50.0796 27.1826 47.0001 27.1826C43.9205 27.1826 40.9261 28.1935 38.4767 30.06C36.0273 31.9266 34.2583 34.5456 33.4414 37.5148C32.6245 40.484 32.8048 43.6393 33.9547 46.4961C35.1047 49.3529 37.1606 51.7533 39.8067 53.3286C34.4571 55.0746 29.8731 58.7621 26.8985 63.9067C26.7894 64.0845 26.7171 64.2825 26.6857 64.4887C26.6544 64.695 26.6646 64.9055 26.7159 65.1078C26.7672 65.31 26.8585 65.4999 26.9844 65.6663C27.1103 65.8327 27.2683 65.9722 27.4489 66.0766C27.6296 66.1809 27.8294 66.248 28.0364 66.274C28.2435 66.2999 28.4536 66.2841 28.6544 66.2274C28.8552 66.1708 29.0427 66.0746 29.2057 65.9443C29.3687 65.8141 29.504 65.6525 29.6036 65.4692C33.2833 59.1098 39.7872 55.3129 47.0001 55.3129C54.213 55.3129 60.7169 59.1098 64.3966 65.4692C64.4961 65.6525 64.6314 65.8141 64.7944 65.9443C64.9575 66.0746 65.1449 66.1708 65.3457 66.2274C65.5466 66.2841 65.7567 66.2999 65.9637 66.274C66.1708 66.248 66.3705 66.1809 66.5512 66.0766C66.7319 65.9722 66.8898 65.8327 67.0157 65.6663C67.1416 65.4999 67.2329 65.31 67.2842 65.1078C67.3355 64.9055 67.3458 64.695 67.3144 64.4887C67.2831 64.2825 67.2107 64.0845 67.1016 63.9067ZM36.0626 41.2504C36.0626 39.0872 36.704 36.9725 37.9059 35.1739C39.1077 33.3752 40.8159 31.9733 42.8145 31.1455C44.813 30.3177 47.0122 30.1011 49.1339 30.5231C51.2555 30.9451 53.2044 31.9868 54.734 33.5164C56.2637 35.0461 57.3054 36.995 57.7274 39.1166C58.1494 41.2383 57.9328 43.4375 57.105 45.436C56.2772 47.4346 54.8753 49.1428 53.0766 50.3446C51.278 51.5465 49.1633 52.1879 47.0001 52.1879C44.1002 52.1848 41.32 51.0315 39.2695 48.981C37.219 46.9305 36.0657 44.1503 36.0626 41.2504Z" fill="white"/>
</svg>
