<svg width="35" height="35" viewBox="0 0 35 35" fill="none" xmlns="http://www.w3.org/2000/svg">
<path fill-rule="evenodd" clip-rule="evenodd" d="M24.319 3.83269C19.7309 2.80707 14.9728 2.80707 10.3847 3.83269L9.89028 3.94206C8.59968 4.23061 7.41433 4.87129 6.46592 5.79293C5.51751 6.71457 4.84315 7.88109 4.51778 9.1629C3.35475 13.7457 3.35475 18.5465 4.51778 23.1294C4.82807 24.3518 5.45608 25.4705 6.33812 26.372C7.22016 27.2735 8.32487 27.9258 9.54028 28.2627L10.2184 32.311C10.24 32.4396 10.2958 32.56 10.3797 32.6597C10.4637 32.7594 10.5729 32.8348 10.6959 32.8779C10.8189 32.9211 10.9512 32.9305 11.0791 32.9052C11.207 32.8799 11.3257 32.8207 11.423 32.7339L15.4057 29.1712C18.3954 29.3537 21.3959 29.1146 24.319 28.461L24.8149 28.3516C26.1055 28.0631 27.2908 27.4224 28.2392 26.5008C29.1876 25.5791 29.862 24.4126 30.1874 23.1308C31.3503 18.5479 31.3503 13.7472 30.1874 9.16435C29.8619 7.88236 29.1873 6.71571 28.2386 5.79406C27.2899 4.8724 26.1043 4.23183 24.8134 3.94352L24.319 3.83269ZM11.6155 9.04477C11.3444 9.00532 11.0681 9.05988 10.8324 9.19936H10.8119C10.2651 9.52019 9.77215 9.92415 9.35215 10.3996C9.00215 10.8035 8.81257 11.2119 8.76298 11.6056C8.73382 11.8389 8.75424 12.0752 8.82278 12.2983L8.84903 12.3129C9.24278 13.4694 9.75611 14.5821 10.3832 15.6291C11.1918 17.0999 12.1868 18.4601 13.3436 19.676L13.3786 19.7256L13.434 19.7664L13.4676 19.8058L13.5084 19.8408C14.7286 21.0011 16.092 22.0009 17.5655 22.8158C19.2499 23.7331 20.2722 24.1662 20.8861 24.3471V24.3558C21.0655 24.4112 21.2288 24.436 21.3936 24.436C21.9165 24.3974 22.4114 24.1848 22.7994 23.8323C23.2734 23.4123 23.6744 22.9179 23.9865 22.3681V22.3579C24.2796 21.8037 24.1805 21.2816 23.7576 20.9273C22.9081 20.185 21.9895 19.5258 21.0144 18.9585C20.3611 18.6041 19.6976 18.8185 19.4292 19.1773L18.8561 19.9006C18.5615 20.2594 18.0278 20.2098 18.0278 20.2098L18.0132 20.2185C14.0305 19.2021 12.9674 15.1698 12.9674 15.1698C12.9674 15.1698 12.9178 14.6214 13.2867 14.3414L14.0042 13.7639C14.3484 13.4839 14.5876 12.8219 14.2186 12.1685C13.6551 11.1925 12.9972 10.2743 12.2542 9.42686C12.0922 9.22742 11.865 9.09159 11.6126 9.04331L11.6155 9.04477ZM18.3442 7.29185C18.1508 7.29185 17.9654 7.36868 17.8286 7.50542C17.6919 7.64217 17.6151 7.82763 17.6151 8.02102C17.6151 8.21441 17.6919 8.39987 17.8286 8.53662C17.9654 8.67337 18.1508 8.75019 18.3442 8.75019C20.189 8.75019 21.7203 9.35248 22.9321 10.5075C23.5549 11.1389 24.0405 11.8871 24.3584 12.7066C24.6778 13.5277 24.8236 14.4041 24.7857 15.2821C24.7817 15.3778 24.7965 15.4734 24.8295 15.5634C24.8624 15.6534 24.9127 15.7361 24.9776 15.8066C25.1086 15.9491 25.2908 16.0337 25.4842 16.0419C25.6776 16.05 25.8663 15.9809 26.0088 15.8499C26.1513 15.7189 26.2359 15.5367 26.244 15.3433C26.2893 14.2634 26.11 13.1858 25.7176 12.1787C25.3234 11.1668 24.7258 10.2466 23.9617 9.47498L23.9471 9.4604C22.4436 8.02394 20.5405 7.29185 18.3442 7.29185ZM18.2947 9.68935C18.1013 9.68935 17.9158 9.76618 17.7791 9.90292C17.6423 10.0397 17.5655 10.2251 17.5655 10.4185C17.5655 10.6119 17.6423 10.7974 17.7791 10.9341C17.9158 11.0709 18.1013 11.1477 18.2947 11.1477H18.3194C19.6494 11.2425 20.6178 11.6858 21.2959 12.4135C21.9915 13.1631 22.3517 14.095 22.324 15.2471C22.3196 15.4404 22.3921 15.6277 22.5257 15.7676C22.6593 15.9075 22.843 15.9886 23.0364 15.993C23.2298 15.9974 23.417 15.9249 23.5569 15.7913C23.6968 15.6577 23.7779 15.474 23.7824 15.2806C23.8174 13.7683 23.3303 12.4631 22.3649 11.4219V11.4189C21.3776 10.3602 20.0228 9.80019 18.3924 9.69081L18.3676 9.6879L18.2947 9.68935ZM18.2669 12.1321C18.1694 12.1235 18.071 12.1346 17.9779 12.1648C17.8847 12.195 17.7985 12.2437 17.7246 12.308C17.6507 12.3722 17.5904 12.4507 17.5475 12.5388C17.5045 12.6268 17.4798 12.7226 17.4747 12.8205C17.4696 12.9183 17.4842 13.0161 17.5178 13.1082C17.5514 13.2002 17.6031 13.2845 17.67 13.3561C17.7369 13.4277 17.8175 13.4851 17.907 13.5249C17.9965 13.5646 18.0932 13.5859 18.1911 13.5875C18.8007 13.6196 19.1901 13.8033 19.4351 14.0498C19.6815 14.2977 19.8653 14.6958 19.8988 15.3185C19.9006 15.4164 19.9221 15.5129 19.962 15.6022C20.0019 15.6916 20.0594 15.772 20.1311 15.8387C20.2027 15.9054 20.287 15.957 20.379 15.9904C20.471 16.0238 20.5688 16.0383 20.6665 16.0331C20.7643 16.0279 20.8599 16.0031 20.9479 15.9601C21.0358 15.9172 21.1142 15.857 21.1784 15.7831C21.2426 15.7092 21.2912 15.6231 21.3214 15.53C21.3516 15.4369 21.3628 15.3387 21.3542 15.2412C21.3076 14.3662 21.0334 13.5933 20.4719 13.0246C19.9076 12.4558 19.139 12.1787 18.2669 12.1321Z" fill="white"/>
</svg>
